<?xml version="1.0" standalone="no"?><!DOCTYPE svg PUBLIC "-//W3C//DTD SVG 1.1//EN" "http://www.w3.org/Graphics/SVG/1.1/DTD/svg11.dtd"><svg t="1702604494983" class="icon" viewBox="0 0 1024 1024" version="1.1" xmlns="http://www.w3.org/2000/svg" p-id="4919" data-spm-anchor-id="a313x.search_index.0.i2.7fa63a81CGtjxH" xmlns:xlink="http://www.w3.org/1999/xlink" width="200" height="200"><path d="M468.992 169.6c29.312-22.528 64.128-40.832 101.312-25.088 36.864 15.552 48.64 53.12 53.76 89.984 5.248 37.824 5.248 89.92 5.248 154.688V634.88c0 64.768 0 116.864-5.184 154.688-5.12 36.928-16.96 74.432-53.76 89.984-37.248 15.744-72.064-2.56-101.376-25.024-30.016-23.04-66.112-59.904-110.912-105.6l-1.92-2.048c-23.04-23.488-38.336-34.88-53.76-41.28-15.616-6.4-34.496-9.152-67.456-9.152h-1.664c-28.544 0-52.416 0-71.68-1.984-20.288-2.112-39.104-6.72-56.064-18.24-32.192-22.016-44.544-54.208-49.28-83.84C52.864 570.24 53.248 545.92 53.568 526.464a907.84 907.84 0 0 0 0-28.928C53.184 478.08 52.864 453.76 56.32 431.68c4.672-29.568 17.024-61.824 49.28-83.84 16.896-11.52 35.712-16.128 55.936-18.176a750.72 750.72 0 0 1 71.68-2.048h1.728c32.96 0 51.84-2.688 67.392-9.152 15.488-6.4 30.72-17.728 53.76-41.216l1.984-2.048c44.8-45.76 80.896-82.56 110.912-105.6z m38.976 50.752c-25.92 19.84-58.88 53.44-106.112 101.632-25.152 25.6-47.616 44.288-75.072 55.68-27.328 11.264-56.32 13.952-91.84 13.952-30.656 0-51.2 0-66.752 1.664-15.04 1.6-21.952 4.352-26.56 7.488-12.416 8.448-19.008 21.184-22.144 40.96-2.56 16-2.24 32.512-1.92 51.136l0.128 19.2c0 6.592-0.064 12.992-0.192 19.136-0.256 18.56-0.512 35.072 1.984 51.136 3.136 19.712 9.728 32.512 22.144 40.96 4.608 3.136 11.52 5.888 26.56 7.424 15.616 1.6 36.096 1.664 66.752 1.664 35.456 0 64.512 2.688 91.84 14.016 27.456 11.328 49.92 29.952 75.072 55.616 47.232 48.192 80.192 81.728 106.112 101.696 27.008 20.736 35.136 17.856 37.44 16.832 2.624-1.088 10.56-5.44 15.296-39.808 4.544-32.896 4.608-80.512 4.608-148.672V391.936c0-68.096 0-115.712-4.608-148.608-4.736-34.368-12.672-38.784-15.36-39.872-2.24-0.96-10.368-3.84-37.376 16.896zM705.92 358.592a32 32 0 0 1 44.864 6.016c30.912 40.448 49.28 91.776 49.28 147.392s-18.368 106.88-49.28 147.392a32 32 0 1 1-50.88-38.784A178.56 178.56 0 0 0 736 512a178.56 178.56 0 0 0-36.096-108.608 32 32 0 0 1 6.016-44.8zM876.928 277.056a32 32 0 0 0-47.168 43.2c48.448 52.992 76.928 119.68 76.928 191.744s-28.48 138.752-76.928 191.68a32 32 0 0 0 47.168 43.264c58.24-63.616 93.76-145.408 93.76-234.944 0-89.6-35.52-171.328-93.76-234.944z" fill="#969696" p-id="4920"></path></svg>